HIERARCHY
ROOT mixamorig:Hips
{
	OFFSET 0.000000 102.714745 0.000000
	CHANNELS 6 Xposition Yposition Zposition Xrotation Yrotation Zrotation
	JOINT mixamorig:Spine
	{
		OFFSET 0.000000 5.645699 -0.031900
		CHANNELS 6 Xposition Yposition Zposition Xrotation Yrotation Zrotation
		JOINT mixamorig:Spine1
		{
			OFFSET 0.000000 6.586693 -0.037247
			CHANNELS 3 Xrotation Yrotation Zrotation
			JOINT mixamorig:Spine2
			{
				OFFSET 0.000000 7.527679 -0.042568
				CHANNELS 3 Xrotation Yrotation Zrotation
				JOINT mixamorig:Neck
				{
					OFFSET 0.000000 8.468559 -0.047889
					CHANNELS 6 Xposition Yposition Zposition Xrotation Yrotation Zrotation
					JOINT mixamorig:Head
					{
						OFFSET 0.000000 5.998901 -1.159000
						CHANNELS 6 Xposition Yposition Zposition Xrotation Yrotation Zrotation
						JOINT mixamorig:HeadTop_End
						{
							OFFSET 0.000000 21.748795 -4.201800
							CHANNELS 6 Xposition Yposition Zposition Xrotation Yrotation Zrotation
							End Site
							{
								OFFSET 0.000000 22.150970 0.000000
							}
						}
					}
				}
				JOINT mixamorig:LeftShoulder
				{
					OFFSET 3.414700 7.343178 -0.058925
					CHANNELS 6 Xposition Yposition Zposition Xrotation Yrotation Zrotation
					JOINT mixamorig:LeftArm
					{
						OFFSET 6.833681 -2.234299 -0.022073
						CHANNELS 3 Xrotation Yrotation Zrotation
						JOINT mixamorig:LeftForeArm
						{
							OFFSET 24.203604 0.000000 0.000001
							CHANNELS 3 Xrotation Yrotation Zrotation
							JOINT mixamorig:LeftHand
							{
								OFFSET 21.595112 0.000000 0.000001
								CHANNELS 3 Xrotation Yrotation Zrotation
								JOINT mixamorig:LeftHandThumb1
								{
									OFFSET 2.307610 -1.154526 1.889843
									CHANNELS 6 Xposition Yposition Zposition Xrotation Yrotation Zrotation
									JOINT mixamorig:LeftHandThumb2
									{
										OFFSET 1.981960 -1.144287 1.144286
										CHANNELS 6 Xposition Yposition Zposition Xrotation Yrotation Zrotation
										JOINT mixamorig:LeftHandThumb3
										{
											OFFSET 2.405823 -1.389000 1.389003
											CHANNELS 6 Xposition Yposition Zposition Xrotation Yrotation Zrotation
											JOINT mixamorig:LeftHandThumb4
											{
												OFFSET 2.095798 -1.210007 1.210009
												CHANNELS 6 Xposition Yposition Zposition Xrotation Yrotation Zrotation
												End Site
												{
													OFFSET 1.877632 -1.197212 1.536812
												}
											}
										}
									}
								}
								JOINT mixamorig:LeftHandIndex1
								{
									OFFSET 7.339149 -0.166130 1.755469
									CHANNELS 6 Xposition Yposition Zposition Xrotation Yrotation Zrotation
									JOINT mixamorig:LeftHandIndex2
									{
										OFFSET 3.000099 0.000000 0.000000
										CHANNELS 6 Xposition Yposition Zposition Xrotation Yrotation Zrotation
										JOINT mixamorig:LeftHandIndex3
										{
											OFFSET 2.748604 0.000000 0.000000
											CHANNELS 6 Xposition Yposition Zposition Xrotation Yrotation Zrotation
											JOINT mixamorig:LeftHandIndex4
											{
												OFFSET 2.334297 0.000000 0.000000
												CHANNELS 6 Xposition Yposition Zposition Xrotation Yrotation Zrotation
												End Site
												{
													OFFSET 2.334297 0.000000 0.000100
												}
											}
										}
									}
								}
								JOINT mixamorig:LeftHandMiddle1
								{
									OFFSET 7.429375 0.000000 0.000000
									CHANNELS 6 Xposition Yposition Zposition Xrotation Yrotation Zrotation
									JOINT mixamorig:LeftHandMiddle2
									{
										OFFSET 3.379601 0.000000 0.000000
										CHANNELS 6 Xposition Yposition Zposition Xrotation Yrotation Zrotation
										JOINT mixamorig:LeftHandMiddle3
										{
											OFFSET 3.190804 0.000000 0.000000
											CHANNELS 6 Xposition Yposition Zposition Xrotation Yrotation Zrotation
											JOINT mixamorig:LeftHandMiddle4
											{
												OFFSET 2.752007 0.000000 0.000000
												CHANNELS 6 Xposition Yposition Zposition Xrotation Yrotation Zrotation
												End Site
												{
													OFFSET 2.751999 0.000031 -0.003600
												}
											}
										}
									}
								}
								JOINT mixamorig:LeftHandRing1
								{
									OFFSET 7.390202 -0.186775 -1.720850
									CHANNELS 6 Xposition Yposition Zposition Xrotation Yrotation Zrotation
									JOINT mixamorig:LeftHandRing2
									{
										OFFSET 2.845203 0.000000 0.000000
										CHANNELS 6 Xposition Yposition Zposition Xrotation Yrotation Zrotation
										JOINT mixamorig:LeftHandRing3
										{
											OFFSET 2.681000 0.000000 0.000000
											CHANNELS 6 Xposition Yposition Zposition Xrotation Yrotation Zrotation
											JOINT mixamorig:LeftHandRing4
											{
												OFFSET 2.280701 0.000000 0.000000
												CHANNELS 6 Xposition Yposition Zposition Xrotation Yrotation Zrotation
												End Site
												{
													OFFSET 2.280708 -0.000053 0.003500
												}
											}
										}
									}
								}
								JOINT mixamorig:LeftHandPinky1
								{
									OFFSET 7.037655 -0.101418 -3.301136
									CHANNELS 6 Xposition Yposition Zposition Xrotation Yrotation Zrotation
									JOINT mixamorig:LeftHandPinky2
									{
										OFFSET 2.480198 0.000000 0.000000
										CHANNELS 6 Xposition Yposition Zposition Xrotation Yrotation Zrotation
										JOINT mixamorig:LeftHandPinky3
										{
											OFFSET 1.951103 0.000000 0.000000
											CHANNELS 6 Xposition Yposition Zposition Xrotation Yrotation Zrotation
											JOINT mixamorig:LeftHandPinky4
											{
												OFFSET 1.659500 0.000000 0.000000
												CHANNELS 6 Xposition Yposition Zposition Xrotation Yrotation Zrotation
												End Site
												{
													OFFSET 1.659508 0.000015 -0.001900
												}
											}
										}
									}
								}
							}
						}
					}
				}
				JOINT mixamorig:RightShoulder
				{
					OFFSET -3.414700 7.343117 -0.036825
					CHANNELS 6 Xposition Yposition Zposition Xrotation Yrotation Zrotation
					JOINT mixamorig:RightArm
					{
						OFFSET -6.833705 -2.234222 0.022066
						CHANNELS 3 Xrotation Yrotation Zrotation
						JOINT mixamorig:RightForeArm
						{
							OFFSET -24.202705 0.000000 -0.000001
							CHANNELS 3 Xrotation Yrotation Zrotation
							JOINT mixamorig:RightHand
							{
								OFFSET -21.595596 0.000000 -0.000001
								CHANNELS 3 Xrotation Yrotation Zrotation
								JOINT mixamorig:RightHandThumb1
								{
									OFFSET -2.350891 -1.235085 1.890873
									CHANNELS 6 Xposition Yposition Zposition Xrotation Yrotation Zrotation
									JOINT mixamorig:RightHandThumb2
									{
										OFFSET -2.020119 -1.166313 1.166315
										CHANNELS 6 Xposition Yposition Zposition Xrotation Yrotation Zrotation
										JOINT mixamorig:RightHandThumb3
										{
											OFFSET -2.370068 -1.368362 1.368359
											CHANNELS 6 Xposition Yposition Zposition Xrotation Yrotation Zrotation
											JOINT mixamorig:RightHandThumb4
											{
												OFFSET -2.055340 -1.186646 1.186648
												CHANNELS 6 Xposition Yposition Zposition Xrotation Yrotation Zrotation
												End Site
												{
													OFFSET -1.840042 -1.175026 1.508060
												}
											}
										}
									}
								}
								JOINT mixamorig:RightHandIndex1
								{
									OFFSET -7.350540 -0.173004 1.735458
									CHANNELS 6 Xposition Yposition Zposition Xrotation Yrotation Zrotation
									JOINT mixamorig:RightHandIndex2
									{
										OFFSET -2.949303 0.000000 -0.000000
										CHANNELS 6 Xposition Yposition Zposition Xrotation Yrotation Zrotation
										JOINT mixamorig:RightHandIndex3
										{
											OFFSET -2.801605 0.000000 -0.000000
											CHANNELS 6 Xposition Yposition Zposition Xrotation Yrotation Zrotation
											JOINT mixamorig:RightHandIndex4
											{
												OFFSET -2.363510 0.000000 -0.000000
												CHANNELS 6 Xposition Yposition Zposition Xrotation Yrotation Zrotation
												End Site
												{
													OFFSET -2.363503 0.000084 -0.006500
												}
											}
										}
									}
								}
								JOINT mixamorig:RightHandMiddle1
								{
									OFFSET -7.311607 0.000000 -0.000001
									CHANNELS 6 Xposition Yposition Zposition Xrotation Yrotation Zrotation
									JOINT mixamorig:RightHandMiddle2
									{
										OFFSET -3.311111 0.000000 -0.000000
										CHANNELS 6 Xposition Yposition Zposition Xrotation Yrotation Zrotation
										JOINT mixamorig:RightHandMiddle3
										{
											OFFSET -3.189102 0.000000 -0.000000
											CHANNELS 3 Xrotation Yrotation Zrotation
											JOINT mixamorig:RightHandMiddle4
											{
												OFFSET -2.691513 0.000000 -0.000000
												CHANNELS 6 Xposition Yposition Zposition Xrotation Yrotation Zrotation
												End Site
												{
													OFFSET -2.691498 -0.000122 0.009199
												}
											}
										}
									}
								}
								JOINT mixamorig:RightHandRing1
								{
									OFFSET -7.330318 -0.067268 -1.836789
									CHANNELS 6 Xposition Yposition Zposition Xrotation Yrotation Zrotation
									JOINT mixamorig:RightHandRing2
									{
										OFFSET -2.815502 0.000000 -0.000000
										CHANNELS 6 Xposition Yposition Zposition Xrotation Yrotation Zrotation
										JOINT mixamorig:RightHandRing3
										{
											OFFSET -2.735703 0.000000 -0.000000
											CHANNELS 6 Xposition Yposition Zposition Xrotation Yrotation Zrotation
											JOINT mixamorig:RightHandRing4
											{
												OFFSET -2.353203 0.000000 -0.000000
												CHANNELS 6 Xposition Yposition Zposition Xrotation Yrotation Zrotation
												End Site
												{
													OFFSET -2.353203 -0.000023 0.001400
												}
											}
										}
									}
								}
								JOINT mixamorig:RightHandPinky1
								{
									OFFSET -7.114304 -0.155228 -3.255253
									CHANNELS 6 Xposition Yposition Zposition Xrotation Yrotation Zrotation
									JOINT mixamorig:RightHandPinky2
									{
										OFFSET -2.449303 0.000000 -0.000000
										CHANNELS 6 Xposition Yposition Zposition Xrotation Yrotation Zrotation
										JOINT mixamorig:RightHandPinky3
										{
											OFFSET -1.966011 0.000000 -0.000000
											CHANNELS 6 Xposition Yposition Zposition Xrotation Yrotation Zrotation
											JOINT mixamorig:RightHandPinky4
											{
												OFFSET -1.612114 0.000000 0.000000
												CHANNELS 6 Xposition Yposition Zposition Xrotation Yrotation Zrotation
												End Site
												{
													OFFSET -1.612106 0.000122 -0.007099
												}
											}
										}
									}
								}
							}
						}
					}
				}
			}
		}
	}
	JOINT mixamorig:LeftUpLeg
	{
		OFFSET 6.620200 -8.816803 -0.447200
		CHANNELS 6 Xposition Yposition Zposition Xrotation Yrotation Zrotation
		JOINT mixamorig:LeftLeg
		{
			OFFSET 1.065641 -36.165676 0.650849
			CHANNELS 6 Xposition Yposition Zposition Xrotation Yrotation Zrotation
			JOINT mixamorig:LeftFoot
			{
				OFFSET -1.065643 -46.239597 1.019059
				CHANNELS 3 Xrotation Yrotation Zrotation
				JOINT mixamorig:LeftToeBase
				{
					OFFSET -0.371092 -10.380516 12.650627
					CHANNELS 3 Xrotation Yrotation Zrotation
					JOINT mixamorig:LeftToe_End
					{
						OFFSET -0.094685 -0.116782 6.663305
						CHANNELS 3 Xrotation Yrotation Zrotation
						End Site
						{
							OFFSET -0.094685 -0.116782 6.663303
						}
					}
				}
			}
		}
	}
	JOINT mixamorig:RightUpLeg
	{
		OFFSET -6.620200 -8.816803 -0.447200
		CHANNELS 6 Xposition Yposition Zposition Xrotation Yrotation Zrotation
		JOINT mixamorig:RightLeg
		{
			OFFSET -1.065604 -36.165672 0.753674
			CHANNELS 6 Xposition Yposition Zposition Xrotation Yrotation Zrotation
			JOINT mixamorig:RightFoot
			{
				OFFSET 1.065611 -46.239521 0.372126
				CHANNELS 3 Xrotation Yrotation Zrotation
				JOINT mixamorig:RightToeBase
				{
					OFFSET 0.371092 -10.380665 13.284518
					CHANNELS 3 Xrotation Yrotation Zrotation
					JOINT mixamorig:RightToe_End
					{
						OFFSET 0.094680 -0.116865 6.675905
						CHANNELS 3 Xrotation Yrotation Zrotation
						End Site
						{
							OFFSET 0.094680 -0.116865 6.675907
						}
					}
				}
			}
		}
	}
}
MOTION
Frames: 4
Frame Time: 0.016667
-0.709805 97.598297 -0.243517 -9.683467 -9.074254 4.572680 -0.000000 5.645689 -0.031897 9.955792 -0.814574 -3.475164 0.320669 0.007606 0.084246 0.320674 0.014263 0.083373 -0.000000 8.468566 -0.047890 5.257613 0.572682 0.578336 0.000000 5.998903 -1.158996 25.693473 7.524827 2.210194 0.000001 21.748779 -4.201801 -0.000001 -0.000000 -0.000001 3.414699 7.343160 -0.058925 0.533565 -6.466875 -11.757109 6.015040 9.335247 -67.302539 0.000005 -39.942540 -0.000032 10.040978 -10.677890 4.444819 2.307621 -1.154521 1.889845 10.584948 11.863011 -0.812888 1.981960 -1.144268 1.144286 5.160275 17.763731 6.467587 2.405811 -1.388984 1.389000 -0.279736 -9.437698 15.535658 2.095808 -1.209975 1.210011 0.000006 0.000002 -0.000004 7.339159 -0.166135 1.755469 1.868274 6.822455 -33.824015 3.000099 0.000004 -0.000003 1.816456 4.241040 -46.355237 2.748600 -0.000002 0.000000 0.537694 2.453617 -24.717485 2.334297 0.000010 0.000006 0.000004 -0.000002 0.000000 7.429383 0.000006 0.000003 4.020782 8.587989 -46.767866 3.379608 0.000004 -0.000001 2.431804 4.750803 -54.193060 3.190780 -0.000005 0.000009 0.360450 2.024965 -20.183240 2.752008 -0.000014 0.000002 0.000001 0.000001 -0.000001 7.390211 -0.186778 -1.720851 8.995888 11.004587 -58.999686 2.845189 -0.000004 -0.000001 3.259709 5.247696 -63.672068 2.681000 -0.000000 -0.000004 1.285986 3.663793 -38.671090 2.280692 -0.000001 0.000002 0.000001 0.000001 0.000000 7.037659 -0.101418 -3.301133 11.775818 12.727436 -58.787582 2.480190 -0.000020 -0.000002 4.036573 5.563499 -71.904291 1.951111 -0.000020 -0.000001 1.245386 3.612574 -38.031152 1.659495 0.000008 -0.000003 -0.000001 0.000002 0.000002 -3.414696 7.343100 -0.036824 0.002866 11.504803 17.932928 -2.302511 10.065646 59.042109 0.000014 21.487767 -0.000022 14.357602 -1.387024 -4.535246 -2.350891 -1.235082 1.890874 -1.538128 6.879959 4.776607 -2.020110 -1.166311 1.166312 6.358364 -14.447604 -2.112213 -2.370065 -1.368348 1.368369 -1.879630 -4.895060 -14.948574 -2.055344 -1.186641 1.186649 -0.000001 0.000000 -0.000002 -7.350544 -0.173013 1.735461 -2.603586 6.362555 16.393239 -2.949305 0.000006 -0.000001 1.590408 -3.506552 48.782785 -2.801593 0.000017 -0.000002 0.231094 -1.450247 18.106454 -2.363512 0.000009 0.000004 -0.000001 -0.000001 0.000001 -7.311608 -0.000004 0.000002 -2.835394 -0.528336 40.073594 -3.311103 0.000000 -0.000004 1.608763 -3.522527 49.082395 0.122208 -1.060983 13.140523 -2.691512 -0.000001 0.000002 -0.000002 0.000002 -0.000001 -7.330333 -0.067284 -1.836789 -0.165999 -4.169709 48.104671 -2.815499 0.000000 -0.000003 2.606574 -4.182334 63.851491 -2.735711 0.000005 -0.000005 0.135612 -1.116843 13.846138 -2.353189 0.000007 -0.000002 -0.000001 -0.000000 0.000001 -7.114300 -0.155239 -3.255250 0.592599 -5.204938 58.030325 -2.449317 0.000014 -0.000005 0.896704 -2.749384 36.121872 -1.966008 -0.000009 0.000000 0.890102 -2.740303 35.983786 -1.612100 0.000008 0.000002 -0.000000 0.000003 0.000001 6.620201 -8.816818 -0.447195 -38.141651 10.769456 9.351908 1.065641 -36.165672 0.650862 88.105260 3.166669 -0.767927 2.029984 5.735547 0.644940 0.000006 -0.000002 -0.000001 0.000000 -0.000000 -0.000001 -6.620202 -8.816817 -0.447201 -9.802607 -10.260090 -7.039276 -1.065605 -36.165676 0.753672 42.332105 -10.243709 -4.223656 -23.430599 -11.354319 2.009079 -6.107374 0.000002 -0.000002 -0.000001 0.000004 0.000001 
-0.645880 96.866257 0.252378 -8.997453 -9.580032 4.458475 -0.000000 5.645705 -0.031901 9.580841 -0.693987 -3.547569 0.268621 0.038907 0.023262 0.268775 0.042888 0.022322 -0.000000 8.468566 -0.047889 5.230208 0.553279 0.601080 0.000001 5.998928 -1.159001 25.645472 7.216461 2.722790 -0.000002 21.748810 -4.201808 0.000002 0.000000 -0.000000 3.414695 7.343180 -0.058925 0.539270 -6.178481 -11.739124 9.589674 8.866158 -68.031703 0.000001 -41.044987 0.000017 14.707243 -10.567806 2.884972 2.307615 -1.154513 1.889849 9.694678 11.970414 -1.117407 1.981969 -1.144275 1.144293 5.288219 18.104735 6.539635 2.405828 -1.388991 1.389001 -0.365098 -9.902979 15.471731 2.095815 -1.209992 1.210009 0.000001 0.000002 -0.000004 7.339160 -0.166138 1.755468 1.962710 6.902903 -35.092658 3.000105 0.000003 0.000002 1.878367 4.299060 -47.186594 2.748600 -0.000002 -0.000000 0.551007 2.482305 -25.026547 2.334298 0.000007 -0.000002 -0.000001 -0.000003 -0.000000 7.429359 -0.000001 0.000006 4.091428 8.600849 -47.535330 3.379583 0.000018 0.000001 2.495352 4.795855 -54.956853 3.190795 0.000006 0.000001 0.371066 2.053609 -20.481803 2.752005 -0.000000 0.000003 -0.000001 -0.000000 0.000001 7.390182 -0.186784 -1.720850 8.833233 10.774626 -59.965851 2.845182 -0.000008 0.000001 3.259708 5.247692 -63.672068 2.680997 0.000024 -0.000001 1.305056 3.687459 -38.968545 2.280708 0.000008 0.000002 -0.000002 -0.000001 -0.000003 7.037664 -0.101417 -3.301135 11.720524 12.630045 -59.092741 2.480211 -0.000001 -0.000003 4.054879 5.569415 -72.093036 1.951092 -0.000005 -0.000000 1.264911 3.637337 -38.340020 1.659493 0.000008 -0.000002 -0.000001 -0.000001 -0.000000 -3.414701 7.343131 -0.036824 0.031613 11.281585 17.774203 -0.693692 10.683270 58.888942 0.000009 27.396037 -0.000004 13.584362 -1.530652 -6.471749 -2.350884 -1.235075 1.890868 -1.377173 6.290352 4.615907 -2.020123 -1.166316 1.166312 7.091215 -14.412748 -1.576004 -2.370070 -1.368365 1.368365 -1.808483 -4.551157 -15.168735 -2.055358 -1.186644 1.186653 0.000005 0.000003 0.000005 -7.350539 -0.173009 1.735455 -2.753245 5.906426 17.923101 -2.949309 0.000015 0.000001 1.679671 -3.582649 50.226718 -2.801592 0.000008 0.000002 0.251516 -1.511224 18.896142 -2.363507 -0.000008 0.000004 0.000001 0.000000 0.000002 -7.311601 0.000004 -0.000004 -2.769523 -0.837648 41.477912 -3.311096 0.000003 -0.000000 1.686233 -3.588095 50.331821 0.138626 -1.128993 13.999869 -2.691513 0.000008 0.000002 0.000002 0.000003 -0.000000 -7.330328 -0.067274 -1.836792 -0.100654 -4.319434 49.803342 -2.815501 -0.000007 -0.000001 2.606582 -4.182329 63.851498 -2.735702 0.000012 0.000000 0.166441 -1.235187 15.347850 -2.353196 -0.000000 0.000002 -0.000001 0.000001 0.000000 -7.114291 -0.155234 -3.255255 0.636439 -5.265516 58.880219 -2.449285 0.000022 -0.000006 0.971863 -2.849389 37.660468 -1.966009 0.000005 0.000003 0.970862 -2.848092 37.640476 -1.612093 0.000012 -0.000000 -0.000003 -0.000000 0.000001 6.620202 -8.816797 -0.447198 -38.402735 10.897080 9.722223 1.065638 -36.165668 0.650838 85.168340 3.067188 -2.113777 1.506919 10.170182 -0.545484 0.000012 -0.000007 0.000002 0.000000 -0.000001 0.000001 -6.620201 -8.816804 -0.447201 -11.660270 -10.040254 -7.252058 -1.065605 -36.165668 0.753670 44.916632 -10.229232 -4.216837 -24.757730 -11.005225 2.360737 -6.107371 0.000004 -0.000000 0.000000 0.000002 0.000000 
-0.583590 96.200249 0.745928 -8.307681 -10.069975 4.350225 0.000001 5.645700 -0.031901 9.211335 -0.578006 -3.631017 0.207785 0.070770 -0.041220 0.208049 0.071808 -0.042340 -0.000000 8.468563 -0.047889 5.184925 0.535974 0.617386 0.000000 5.998899 -1.159004 24.952928 7.039118 3.031007 -0.000000 21.748795 -4.201789 -0.000001 0.000000 -0.000000 3.414695 7.343171 -0.058926 0.545593 -5.859895 -11.712413 13.388980 8.090179 -68.644419 -0.000001 -42.549678 0.000002 19.862330 -10.573998 1.197782 2.307616 -1.154524 1.889843 8.710045 12.094895 -1.461143 1.981948 -1.144269 1.144288 5.430056 18.483590 6.618846 2.405826 -1.389007 1.389000 -0.460632 -10.419551 15.399828 2.095815 -1.209988 1.210017 0.000002 -0.000002 -0.000004 7.339137 -0.166131 1.755467 2.067000 6.987981 -36.467527 3.000088 0.000000 -0.000005 1.947248 4.361686 -48.098926 2.748592 -0.000009 0.000003 0.565969 2.514066 -25.369739 2.334298 0.000024 0.000000 -0.000000 -0.000000 -0.000000 7.429360 0.000001 0.000003 4.169258 8.614421 -48.375826 3.379593 0.000001 0.000003 2.565649 4.844217 -55.793432 3.190800 0.000009 0.000001 0.382452 2.083841 -20.797415 2.752002 -0.000008 -0.000002 -0.000000 0.000003 -0.000002 7.390186 -0.186771 -1.720855 8.642619 10.528682 -61.029031 2.845220 -0.000007 0.000002 3.259715 5.247694 -63.672068 2.680988 0.000004 0.000001 1.325352 3.712333 -39.282983 2.280700 -0.000016 0.000001 -0.000003 -0.000003 -0.000003 7.037649 -0.101424 -3.301139 11.658112 12.522935 -59.431682 2.480193 -0.000003 0.000000 4.075241 5.575930 -72.302675 1.951108 -0.000021 0.000000 1.286754 3.664726 -38.682992 1.659493 0.000000 -0.000002 0.000000 -0.000000 -0.000000 -3.414699 7.343115 -0.036825 0.060515 11.053739 17.599709 0.926288 11.280317 58.882330 0.000002 33.486044 0.000006 12.804915 -1.522778 -8.672829 -2.350896 -1.235093 1.890872 -1.206787 5.658234 4.445810 -2.020127 -1.166323 1.166319 7.871680 -14.363495 -1.001433 -2.370059 -1.368345 1.368371 -1.733505 -4.182462 -15.408145 -2.055348 -1.186634 1.186644 0.000006 -0.000003 -0.000000 -7.350540 -0.173013 1.735459 -2.884572 5.429547 19.492241 -2.949283 0.000014 -0.000000 1.774651 -3.659461 51.730418 -2.801609 0.000013 0.000005 0.272896 -1.572292 19.690979 -2.363517 0.000010 -0.000001 0.000001 -0.000002 -0.000000 -7.311594 -0.000006 -0.000000 -2.688162 -1.156896 42.942455 -3.311104 -0.000001 0.000000 1.767895 -3.654103 51.624400 0.156227 -1.197404 14.867264 -2.691519 -0.000016 0.000002 0.000002 0.000002 -0.000001 -7.330327 -0.067277 -1.836790 -0.027610 -4.473543 51.581858 -2.815510 0.000004 0.000001 2.606578 -4.182333 63.851498 -2.735699 0.000003 0.000001 0.201806 -1.357419 16.910927 -2.353202 -0.000007 0.000004 0.000002 0.000004 -0.000001 -7.114309 -0.155234 -3.255258 0.681614 -5.325970 59.737743 -2.449307 0.000014 0.000003 1.053320 -2.951781 39.270149 -1.966019 -0.000013 0.000006 1.058944 -2.958643 39.379288 -1.612103 -0.000008 -0.000003 0.000002 0.000001 -0.000001 6.620203 -8.816805 -0.447188 -38.447900 11.157898 10.185050 1.065641 -36.165668 0.650847 82.007042 3.077167 -3.580211 0.678794 14.968518 -1.255046 0.000007 0.000003 -0.000003 -0.000005 -0.000001 0.000001 -6.620199 -8.816793 -0.447200 -13.299884 -9.886730 -7.437974 -1.065605 -36.165657 0.753672 47.108184 -10.088403 -4.220878 -25.952933 -10.698607 2.667131 -6.107375 -0.000016 -0.000001 0.000001 -0.000002 0.000000 
-0.526364 95.578850 1.233630 -7.618301 -10.559898 4.250583 0.000001 5.645702 -0.031901 8.839567 -0.462801 -3.708047 0.151453 0.102351 -0.103953 0.151845 0.100578 -0.105198 -0.000000 8.468544 -0.047890 5.134146 0.512465 0.629439 0.000000 5.998905 -1.158998 23.856295 6.791751 3.195298 -0.000000 21.748779 -4.201791 -0.000001 -0.000000 0.000000 3.414694 7.343182 -0.058926 0.548569 -5.598510 -11.802477 16.783394 7.468978 -69.015728 0.000022 -44.177513 0.000021 24.877593 -11.200615 -0.798145 2.307616 -1.154526 1.889844 7.661597 12.234326 -1.835234 1.981955 -1.144272 1.144290 5.581514 18.889052 6.702702 2.405818 -1.388996 1.389003 -0.563751 -10.971995 15.321784 2.095818 -1.209984 1.210017 0.000001 -0.000006 -0.000006 7.339155 -0.166136 1.755465 2.179005 7.075178 -37.916948 3.000106 0.000009 0.000001 2.021502 4.427001 -49.068000 2.748600 -0.000005 0.000001 0.582177 2.547933 -25.736868 2.334297 0.000001 -0.000000 -0.000000 -0.000002 -0.000000 7.429372 0.000005 -0.000002 4.252127 8.628090 -49.267445 3.379615 0.000009 0.000001 2.641014 4.894401 -56.680987 3.190786 0.000006 0.000002 0.394454 2.115140 -21.125002 2.752006 0.000007 0.000000 0.000000 -0.000002 0.000000 7.390180 -0.186779 -1.720854 8.428656 10.276722 -62.160240 2.845202 0.000008 -0.000002 3.259714 5.247697 -63.672068 2.680990 0.000027 -0.000001 1.346557 3.738052 -39.609363 2.280695 -0.000012 -0.000001 0.000000 0.000000 -0.000001 7.037654 -0.101418 -3.301138 11.590202 12.409573 -59.794242 2.480206 -0.000012 -0.000002 4.097014 5.582776 -72.526883 1.951122 -0.000003 -0.000001 1.310299 3.693887 -39.049920 1.659499 0.000013 -0.000001 0.000002 -0.000001 0.000001 -3.414703 7.343121 -0.036824 0.088046 10.825899 17.424904 2.523161 11.886955 58.919315 0.000016 39.576022 0.000013 12.045832 -1.458585 -10.873525 -2.350891 -1.235080 1.890873 -1.029443 4.991443 4.268755 -2.020121 -1.166317 1.166312 8.689335 -14.298452 -0.395350 -2.370057 -1.368343 1.368370 -1.655385 -3.794097 -15.663664 -2.055347 -1.186638 1.186644 -0.000002 -0.000000 -0.000000 -7.350532 -0.173016 1.735460 -2.995465 4.936366 21.093127 -2.949310 0.000006 0.000006 1.874791 -3.736111 53.282726 -2.801599 0.000018 0.000001 0.295221 -1.633360 20.490026 -2.363508 -0.000000 0.000006 0.000000 -0.000001 -0.000001 -7.311593 0.000010 0.000005 -2.591054 -1.482367 44.456376 -3.311107 0.000004 -0.000002 1.853278 -3.719996 52.952100 0.175011 -1.266036 15.741209 -2.691512 -0.000001 0.000008 0.000000 0.000001 -0.000001 -7.330327 -0.067280 -1.836786 0.053058 -4.630343 53.425436 -2.815487 0.000001 0.000004 2.606578 -4.182332 63.851498 -2.735694 -0.000002 -0.000004 0.241761 -1.482508 18.523910 -2.353201 0.000001 -0.000002 -0.000001 0.000002 -0.000001 -7.114303 -0.155230 -3.255242 0.727975 -5.386177 60.601475 -2.449303 0.000008 0.000000 1.140699 -3.055404 40.937726 -1.966008 0.000007 -0.000002 1.153906 -3.070548 41.184907 -1.612106 0.000001 0.000004 0.000002 0.000001 0.000003 6.620203 -8.816798 -0.447194 -38.222866 11.483366 10.603230 1.065641 -36.165676 0.650835 78.453636 3.121533 -4.986707 -0.088944 19.585960 -1.776912 -0.000014 -0.000004 -0.000007 -0.000000 0.000001 0.000000 -6.620198 -8.816789 -0.447199 -14.807743 -9.734881 -7.597387 -1.065605 -36.165672 0.753674 49.068752 -9.606986 -4.222530 -27.064625 -10.710238 2.785844 -6.107372 -0.000024 -0.000004 0.000000 -0.000004 0.000000 
